<mxfile host="app.diagrams.net" modified="2020-07-24T15:13:07.305Z" agent="5.0 (Windows NT 10.0; Win64; x64) AppleWebKit/537.36 (KHTML, like Gecko) Chrome/84.0.4147.89 Safari/537.36" etag="Vr8QDA2b8u2PaGfO1GGx" version="13.5.1" type="github" pages="2">
  <diagram id="VtE_RboYO4TXfeD4jQHN" name="vmkernel swap">
    <mxGraphModel dx="1422" dy="783" grid="1" gridSize="10" guides="1" tooltips="1" connect="1" arrows="1" fold="1" page="1" pageScale="1" pageWidth="1169" pageHeight="827" math="0" shadow="0">
      <root>
        <mxCell id="53fhRRsvSnjW6OkQHy7m-0" />
        <mxCell id="53fhRRsvSnjW6OkQHy7m-1" parent="53fhRRsvSnjW6OkQHy7m-0" />
        <mxCell id="53fhRRsvSnjW6OkQHy7m-2" value="vSphere 7 ICM Day 5" style="text;html=1;strokeColor=none;fillColor=none;align=left;verticalAlign=middle;whiteSpace=wrap;rounded=0;fontStyle=1;fontSize=25;" parent="53fhRRsvSnjW6OkQHy7m-1" vertex="1">
          <mxGeometry x="50" y="90" width="290" height="20" as="geometry" />
        </mxCell>
        <mxCell id="53fhRRsvSnjW6OkQHy7m-3" value="" style="pointerEvents=1;shadow=0;dashed=0;html=1;strokeColor=none;fillColor=#434445;aspect=fixed;labelPosition=center;verticalLabelPosition=bottom;verticalAlign=top;align=center;outlineConnect=0;shape=mxgraph.vvd.virtual_machine;fontSize=25;" parent="53fhRRsvSnjW6OkQHy7m-1" vertex="1">
          <mxGeometry x="320" y="170" width="90" height="90" as="geometry" />
        </mxCell>
        <mxCell id="53fhRRsvSnjW6OkQHy7m-5" value="vm.vmx&lt;br&gt;vm.vmdk&lt;br&gt;vm-flat.vmdk&lt;br&gt;vm.vswp (2GB)" style="text;html=1;strokeColor=none;fillColor=none;align=left;verticalAlign=middle;whiteSpace=wrap;rounded=0;fontSize=25;" parent="53fhRRsvSnjW6OkQHy7m-1" vertex="1">
          <mxGeometry x="460" y="170" width="190" height="110" as="geometry" />
        </mxCell>
        <mxCell id="53fhRRsvSnjW6OkQHy7m-6" value="4GB vRAM&lt;br&gt;Memory Reservation = 2GB" style="text;html=1;strokeColor=none;fillColor=none;align=center;verticalAlign=middle;whiteSpace=wrap;rounded=0;fontSize=25;" parent="53fhRRsvSnjW6OkQHy7m-1" vertex="1">
          <mxGeometry x="190" y="290" width="280" height="50" as="geometry" />
        </mxCell>
      </root>
    </mxGraphModel>
  </diagram>
  <diagram id="YEIVjX-OuQhBLx61F2jh" name="ESXi bootbanks">
    <mxGraphModel dx="1422" dy="783" grid="1" gridSize="10" guides="1" tooltips="1" connect="1" arrows="1" fold="1" page="1" pageScale="1" pageWidth="1169" pageHeight="827" math="0" shadow="0">
      <root>
        <mxCell id="nDzPhNR8QeOzeyFjd9EK-0" />
        <mxCell id="nDzPhNR8QeOzeyFjd9EK-1" parent="nDzPhNR8QeOzeyFjd9EK-0" />
        <mxCell id="nDzPhNR8QeOzeyFjd9EK-2" value="ESXi" style="rounded=1;whiteSpace=wrap;html=1;fontSize=25;align=center;" parent="nDzPhNR8QeOzeyFjd9EK-1" vertex="1">
          <mxGeometry x="190" y="70" width="450" height="390" as="geometry" />
        </mxCell>
        <mxCell id="nDzPhNR8QeOzeyFjd9EK-4" value="" style="shape=cylinder;whiteSpace=wrap;html=1;boundedLbl=1;backgroundOutline=1;fontSize=25;align=left;" parent="nDzPhNR8QeOzeyFjd9EK-1" vertex="1">
          <mxGeometry x="600" y="230" width="220" height="310" as="geometry" />
        </mxCell>
        <mxCell id="nDzPhNR8QeOzeyFjd9EK-5" value="LOCAL STORAGE" style="text;html=1;strokeColor=none;fillColor=none;align=center;verticalAlign=middle;whiteSpace=wrap;rounded=0;fontSize=25;" parent="nDzPhNR8QeOzeyFjd9EK-1" vertex="1">
          <mxGeometry x="700" y="560" width="40" height="20" as="geometry" />
        </mxCell>
        <mxCell id="nDzPhNR8QeOzeyFjd9EK-6" value="bootbank1" style="rounded=1;whiteSpace=wrap;html=1;align=left;fontSize=25;" parent="nDzPhNR8QeOzeyFjd9EK-1" vertex="1">
          <mxGeometry x="610" y="280" width="170" height="60" as="geometry" />
        </mxCell>
        <mxCell id="nDzPhNR8QeOzeyFjd9EK-7" value="bootbank2" style="rounded=1;whiteSpace=wrap;html=1;align=left;fontSize=25;fillColor=#fff2cc;strokeColor=#d6b656;" parent="nDzPhNR8QeOzeyFjd9EK-1" vertex="1">
          <mxGeometry x="610" y="340" width="170" height="60" as="geometry" />
        </mxCell>
        <mxCell id="nDzPhNR8QeOzeyFjd9EK-8" value="a.gz&lt;br style=&quot;font-size: 21px;&quot;&gt;b.gz&lt;br style=&quot;font-size: 21px;&quot;&gt;state.tgz" style="text;html=1;strokeColor=none;fillColor=none;align=left;verticalAlign=middle;whiteSpace=wrap;rounded=0;fontSize=21;" parent="nDzPhNR8QeOzeyFjd9EK-1" vertex="1">
          <mxGeometry x="750" y="300" width="40" height="20" as="geometry" />
        </mxCell>
        <mxCell id="nDzPhNR8QeOzeyFjd9EK-10" value="rootfs&lt;br&gt;(RAMDISK)&lt;br&gt;/&lt;br&gt;/var&lt;br&gt;/opt&lt;br&gt;/tmp&lt;br&gt;/vmfs" style="rounded=1;whiteSpace=wrap;html=1;align=left;fontSize=21;" parent="nDzPhNR8QeOzeyFjd9EK-1" vertex="1">
          <mxGeometry x="170" y="320" width="120" height="260" as="geometry" />
        </mxCell>
        <mxCell id="nDzPhNR8QeOzeyFjd9EK-12" value="" style="shape=flexArrow;endArrow=classic;html=1;fontSize=21;exitX=-0.009;exitY=0.458;exitDx=0;exitDy=0;exitPerimeter=0;" parent="nDzPhNR8QeOzeyFjd9EK-1" source="nDzPhNR8QeOzeyFjd9EK-4" target="nDzPhNR8QeOzeyFjd9EK-10" edge="1">
          <mxGeometry width="50" height="50" relative="1" as="geometry">
            <mxPoint x="380" y="439" as="sourcePoint" />
            <mxPoint x="430" y="389" as="targetPoint" />
          </mxGeometry>
        </mxCell>
        <mxCell id="nDzPhNR8QeOzeyFjd9EK-13" value="a.gz&lt;br style=&quot;font-size: 21px;&quot;&gt;b.gz&lt;br style=&quot;font-size: 21px;&quot;&gt;state.tgz" style="text;html=1;strokeColor=none;fillColor=none;align=left;verticalAlign=middle;whiteSpace=wrap;rounded=0;fontSize=21;" parent="nDzPhNR8QeOzeyFjd9EK-1" vertex="1">
          <mxGeometry x="750" y="375" width="40" height="20" as="geometry" />
        </mxCell>
      </root>
    </mxGraphModel>
  </diagram>
</mxfile>
